<svg class="main-svg" xmlns="http://www.w3.org/2000/svg" xmlns:xlink="http://www.w3.org/1999/xlink" width="600" height="600" style="" viewBox="0 0 600 600"><rect x="0" y="0" width="600" height="600" style="fill: rgb(0, 0, 0); fill-opacity: 0;"/><defs id="defs-714a98"><g class="clips"><clipPath id="clip714a98xyplot" class="plotclip"><rect width="600" height="519"/></clipPath><clipPath class="axesclip" id="clip714a98x"><rect x="0" y="0" width="600" height="600"/></clipPath><clipPath class="axesclip" id="clip714a98y"><rect x="0" y="0" width="600" height="519"/></clipPath><clipPath class="axesclip" id="clip714a98xy"><rect x="0" y="0" width="600" height="519"/></clipPath></g><g class="gradients"/><g class="patterns"/></defs><g class="bglayer"><rect class="bg" x="-4" y="-4" width="608" height="527" style="fill: rgb(0, 0, 0); fill-opacity: 0; stroke-width: 0;"/></g><g class="layer-below"><g class="imagelayer"/><g class="shapelayer"/></g><g class="cartesianlayer"><g class="subplot xy"><g class="layer-subplot"><g class="shapelayer"/><g class="imagelayer"/></g><g class="minor-gridlayer"><g class="x"/><g class="y"/></g><g class="gridlayer"><g class="x"/><g class="y"/></g><g class="zerolinelayer"/><path class="xlines-below"/><path class="ylines-below"/><g class="overlines-below"/><g class="xaxislayer-below"/><g class="yaxislayer-below"/><g class="overaxes-below"/><g class="plot" transform="" clip-path="url(#clip714a98xyplot)"><g class="scatterlayer mlayer"><g class="trace scatter trace4fc066" style="stroke-miterlimit: 2; opacity: 1;"><g class="fills"/><g class="errorbars"/><g class="lines"><path class="js-line" d="M-240,648.75L575.71,207.76L577.64,206.72L720,129.75" style="vector-effect: none; fill: none; stroke: rgb(128, 128, 128); stroke-opacity: 1; stroke-dasharray: 9px, 9px; stroke-width: 2px; opacity: 1;"/></g><g class="points"/><g class="text"/></g><g class="trace scatter trace37ea26" style="stroke-miterlimit: 2; opacity: 1;"><g class="fills"/><g class="errorbars"/><g class="lines"><path class="js-line" d="M-240,388.6L239.04,388.6L240.96,387.56L658.44,-63.83L660.36,-65.91L720,-130.4" style="vector-effect: none; fill: none; stroke: rgb(51, 102, 204); stroke-opacity: 1; stroke-width: 4px; opacity: 1;"/></g><g class="points"/><g class="text"/></g><g class="trace scatter trace30c28f" style="stroke-miterlimit: 2; opacity: 1;"><g class="fills"/><g class="errorbars"/><g class="lines"><path class="js-line" d="M-240,389.9L240.96,389.38L242.89,388.32L265.97,374.34L267.9,373.06L290.98,356.48L292.91,354.99L317.92,334.1L319.84,332.38L344.85,308.45L346.77,306.49L369.86,281.71L371.78,279.53L396.79,249.75L398.72,247.35L427.58,209.23L429.5,206.56L458.36,164.45L460.28,161.51L489.14,115.39L491.06,112.18L518,65.52L519.92,62.06L550.7,4.47L552.63,0.73L610.34,-119.27L612.26,-123.52L702.69,-342.47L704.61,-347.53L720,-388.6" style="vector-effect: none; fill: none; stroke: rgb(255, 153, 0); stroke-opacity: 1; stroke-width: 4px; opacity: 1;"/></g><g class="points"/><g class="text"/></g><g class="trace scatter trace5ebac1" style="stroke-miterlimit: 2; opacity: 1;"><g class="fills"/><g class="errorbars"/><g class="lines"><path class="js-line" d="M-240,452.94L-66.85,449.1L-64.93,449.01L0.48,445.31L2.4,445.17L58.2,439.87L60.12,439.63L100.52,433.83L102.44,433.51L139,426.16L140.92,425.71L171.7,417.4L173.63,416.81L200.56,407.42L202.48,406.67L227.49,395.67L229.42,394.73L252.51,382.12L254.43,380.96L275.59,366.85L277.52,365.44L296.75,350.02L298.68,348.34L317.92,329.94L319.84,327.93L337.15,308.35L339.08,305.99L356.39,283L358.32,280.23L375.63,253.24L377.56,250L394.87,218.31L396.79,214.5L412.18,181.71L414.11,177.31L429.5,139.42L431.42,134.34L446.81,90.58L448.74,84.7L464.13,34.15L466.05,27.36L489.14,-63.17L491.06,-71.53L527.62,-258.71L529.54,-270.23L585.33,-698.98L587.25,-717.62L671.9,-1918.28L673.83,-1956.62L720,-3087.93" style="vector-effect: none; fill: none; stroke: rgb(16, 150, 24); stroke-opacity: 1; stroke-width: 4px; opacity: 1;"/></g><g class="points"/><g class="text"/></g></g></g><g class="overplot"/><path class="xlines-above crisp" d="M0,0" style="fill: none;"/><path class="ylines-above crisp" d="M0,0" style="fill: none;"/><g class="overlines-above"/><g class="xaxislayer-above"/><g class="yaxislayer-above"/><g class="overaxes-above"/></g></g><g class="polarlayer"/><g class="smithlayer"/><g class="ternarylayer"/><g class="geolayer"/><g class="funnelarealayer"/><g class="pielayer"/><g class="iciclelayer"/><g class="treemaplayer"/><g class="sunburstlayer"/><g class="glimages"/><defs id="topdefs-714a98"><g class="clips"/><clipPath id="legend714a98"><rect width="379" height="29" x="0" y="0"/></clipPath></defs><g class="layer-above"><g class="imagelayer"/><g class="shapelayer"><g class="shape-group" data-index="0" clip-path="url(#clip714a98y)"><path data-index="0" fill-rule="evenodd" d="M0,389.25L600,389.25" style="opacity: 1; stroke: rgb(0, 0, 0); stroke-opacity: 1; fill: rgb(0, 0, 0); fill-opacity: 0; stroke-width: 1px;"/></g><g class="shape-group" data-index="1" clip-path="url(#clip714a98x)"><path data-index="1" fill-rule="evenodd" d="M240,519L240,0" style="opacity: 1; stroke: rgb(0, 0, 0); stroke-opacity: 1; fill: rgb(0, 0, 0); fill-opacity: 0; stroke-width: 1px;"/></g></g></g><g class="infolayer"><g class="legend" pointer-events="all" transform="translate(0,570.9000000000001)"><rect class="bg" shape-rendering="crispEdges" width="379" height="29" x="0" y="0" style="stroke: rgb(68, 68, 68); stroke-opacity: 1; fill: rgb(0, 0, 0); fill-opacity: 0; stroke-width: 0px;"/><g class="scrollbox" transform="" clip-path="url(#legend714a98)"><g class="groups"><g class="traces" transform="translate(0,14.5)" style="opacity: 1;"><text class="legendtext" text-anchor="start" x="40" y="4.680000000000001" style="font-family: 'Open Sans', verdana, arial, sans-serif; font-size: 12px; fill: rgb(42, 63, 95); fill-opacity: 1; white-space: pre;">Piecewise Linear</text><g class="layers" style="opacity: 1;"><g class="legendfill"/><g class="legendlines"><path class="js-line" d="M5,0h30" style="fill: none; stroke: rgb(51, 102, 204); stroke-opacity: 1; stroke-width: 4px;"/></g><g class="legendsymbols"><g class="legendpoints"/></g></g><rect class="legendtoggle" x="0" y="-9.5" width="134.921875" height="19" style="fill: rgb(0, 0, 0); fill-opacity: 0;"/></g><g class="traces" transform="translate(137.421875,14.5)" style="opacity: 1;"><text class="legendtext" text-anchor="start" x="40" y="4.680000000000001" style="font-family: 'Open Sans', verdana, arial, sans-serif; font-size: 12px; fill: rgb(42, 63, 95); fill-opacity: 1; white-space: pre;">Right quadratic</text><g class="layers" style="opacity: 1;"><g class="legendfill"/><g class="legendlines"><path class="js-line" d="M5,0h30" style="fill: none; stroke: rgb(255, 153, 0); stroke-opacity: 1; stroke-width: 4px;"/></g><g class="legendsymbols"><g class="legendpoints"/></g></g><rect class="legendtoggle" x="0" y="-9.5" width="127.84375" height="19" style="fill: rgb(0, 0, 0); fill-opacity: 0;"/></g><g class="traces" transform="translate(267.765625,14.5)" style="opacity: 1;"><text class="legendtext" text-anchor="start" x="40" y="4.680000000000001" style="font-family: 'Open Sans', verdana, arial, sans-serif; font-size: 12px; fill: rgb(42, 63, 95); fill-opacity: 1; white-space: pre;">Exponential</text><g class="layers" style="opacity: 1;"><g class="legendfill"/><g class="legendlines"><path class="js-line" d="M5,0h30" style="fill: none; stroke: rgb(16, 150, 24); stroke-opacity: 1; stroke-width: 4px;"/></g><g class="legendsymbols"><g class="legendpoints"/></g></g><rect class="legendtoggle" x="0" y="-9.5" width="108.515625" height="19" style="fill: rgb(0, 0, 0); fill-opacity: 0;"/></g></g></g><rect class="scrollbar" rx="20" ry="3" width="0" height="0" x="0" y="0" style="fill: rgb(128, 139, 164); fill-opacity: 1;"/></g><g class="g-gtitle"/></g></svg>