<svg class="main-svg" xmlns="http://www.w3.org/2000/svg" xmlns:xlink="http://www.w3.org/1999/xlink" width="800" height="500" style="" viewBox="0 0 800 500"><rect x="0" y="0" width="800" height="500" style="fill: rgb(0, 0, 0); fill-opacity: 0;"/><defs id="defs-a23189"><g class="clips"><clipPath id="clipa23189xyplot" class="plotclip"><rect width="700" height="400"/></clipPath><clipPath class="axesclip" id="clipa23189x"><rect x="50" y="0" width="700" height="500"/></clipPath><clipPath class="axesclip" id="clipa23189y"><rect x="0" y="50" width="800" height="400"/></clipPath><clipPath class="axesclip" id="clipa23189xy"><rect x="50" y="50" width="700" height="400"/></clipPath></g><g class="gradients"/><g class="patterns"/></defs><g class="bglayer"><rect class="bg" x="46" y="46" width="708" height="408" style="fill: rgb(0, 0, 0); fill-opacity: 0; stroke-width: 0;"/></g><g class="layer-below"><g class="imagelayer"/><g class="shapelayer"/></g><g class="cartesianlayer"><g class="subplot xy"><g class="layer-subplot"><g class="shapelayer"/><g class="imagelayer"/></g><g class="minor-gridlayer"><g class="x"/><g class="y"/></g><g class="gridlayer"><g class="x"><path class="xgrid crisp" transform="translate(190,0)" d="M0,50v400" style="stroke: rgb(235, 240, 248); stroke-opacity: 1; stroke-width: 1px;"/><path class="xgrid crisp" transform="translate(330,0)" d="M0,50v400" style="stroke: rgb(235, 240, 248); stroke-opacity: 1; stroke-width: 1px;"/><path class="xgrid crisp" transform="translate(470,0)" d="M0,50v400" style="stroke: rgb(235, 240, 248); stroke-opacity: 1; stroke-width: 1px;"/><path class="xgrid crisp" transform="translate(610,0)" d="M0,50v400" style="stroke: rgb(235, 240, 248); stroke-opacity: 1; stroke-width: 1px;"/></g><g class="y"><path class="ygrid crisp" transform="translate(0,440.29)" d="M50,0h700" style="stroke: rgb(235, 240, 248); stroke-opacity: 1; stroke-width: 1px;"/><path class="ygrid crisp" transform="translate(0,388.86)" d="M50,0h700" style="stroke: rgb(235, 240, 248); stroke-opacity: 1; stroke-width: 1px;"/><path class="ygrid crisp" transform="translate(0,337.43)" d="M50,0h700" style="stroke: rgb(235, 240, 248); stroke-opacity: 1; stroke-width: 1px;"/><path class="ygrid crisp" transform="translate(0,286)" d="M50,0h700" style="stroke: rgb(235, 240, 248); stroke-opacity: 1; stroke-width: 1px;"/><path class="ygrid crisp" transform="translate(0,234.57)" d="M50,0h700" style="stroke: rgb(235, 240, 248); stroke-opacity: 1; stroke-width: 1px;"/><path class="ygrid crisp" transform="translate(0,183.14)" d="M50,0h700" style="stroke: rgb(235, 240, 248); stroke-opacity: 1; stroke-width: 1px;"/><path class="ygrid crisp" transform="translate(0,131.70999999999998)" d="M50,0h700" style="stroke: rgb(235, 240, 248); stroke-opacity: 1; stroke-width: 1px;"/><path class="ygrid crisp" transform="translate(0,80.28999999999999)" d="M50,0h700" style="stroke: rgb(235, 240, 248); stroke-opacity: 1; stroke-width: 1px;"/></g></g><g class="zerolinelayer"><path class="xzl zl crisp" transform="translate(50,0)" d="M0,50v400" style="stroke: rgb(235, 240, 248); stroke-opacity: 1; stroke-width: 2px;"/></g><path class="xlines-below"/><path class="ylines-below"/><g class="overlines-below"/><g class="xaxislayer-below"/><g class="yaxislayer-below"/><g class="overaxes-below"/><g class="plot" transform="translate(50,50)" clip-path="url(#clipa23189xyplot)"><g class="scatterlayer mlayer"><g class="trace scatter traceb90ccd" style="stroke-miterlimit: 2; opacity: 1;"><g class="fills"/><g class="errorbars"/><g class="lines"><path class="js-line" d="M0,133.14L7,122.86L14,133.14L28,112.57L35,122.86L49,143.43L56,133.14L63,143.43L70,133.14L77,122.86L84,133.14L91,122.86L98,133.14L112,153.71L119,143.43L126,133.14L133,143.43L140,133.14L147,143.43L161,164L168,153.71L182,174.29L189,164L196,153.71L203,164L217,143.43L224,153.71L231,143.43L238,153.71L245,164L252,153.71L259,164L266,153.71L273,164L280,153.71L287,164L294,153.71L301,143.43L308,153.71L315,164L322,153.71L329,143.43L336,153.71L350,174.29L357,164L371,143.43L378,153.71L385,164L392,153.71L399,143.43L406,153.71L434,194.86L441,184.57L448,194.86L455,184.57L462,194.86L469,184.57L476,174.29L483,184.57L497,164L504,174.29L588,297.71L595,287.43L602,277.14L609,287.43L637,328.57L644,318.29L651,308L658,318.29L700,380" style="vector-effect: none; fill: none; stroke: rgb(51, 102, 204); stroke-opacity: 1; stroke-width: 2px; opacity: 1;"/></g><g class="points"/><g class="text"/></g><g class="trace scatter trace2fdd8f" style="stroke-miterlimit: 2; opacity: 1;"><g class="fills"/><g class="errorbars"/><g class="lines"><path class="js-line" d="M0,133.14L14,153.71L21,143.43L35,164L42,153.71L63,122.86L70,133.14L84,153.71L91,143.43L98,133.14L105,143.43L119,164L126,153.71L133,143.43L140,153.71L168,194.86L175,184.57L182,174.29L189,184.57L196,194.86L203,184.57L210,174.29L217,184.57L224,194.86L231,184.57L238,174.29L245,184.57L259,205.14L266,194.86L273,184.57L280,194.86L315,143.43L322,153.71L329,164L336,153.71L357,122.86L364,133.14L385,102.29L392,112.57L406,133.14L413,122.86L420,133.14L427,122.86L434,112.57L441,122.86L455,102.29L462,112.57L469,102.29L476,112.57L511,61.14L518,71.43L539,40.57L546,50.86L595,122.86L602,112.57L623,81.71L630,92L637,102.29L644,92L658,112.57L665,102.29L672,92L679,102.29L686,92L693,102.29L700,92" style="vector-effect: none; fill: none; stroke: rgb(220, 57, 18); stroke-opacity: 1; stroke-width: 2px; opacity: 1;"/></g><g class="points"/><g class="text"/></g><g class="trace scatter trace94e051" style="stroke-miterlimit: 2; opacity: 1;"><g class="fills"/><g class="errorbars"/><g class="lines"><path class="js-line" d="M0,133.14L7,122.86L14,133.14L21,122.86L28,133.14L49,102.29L56,112.57L63,102.29L70,112.57L105,164L112,153.71L119,143.43L126,153.71L133,164L140,153.71L161,184.57L168,174.29L175,164L182,174.29L189,164L196,174.29L217,143.43L224,153.71L231,143.43L238,153.71L252,133.14L259,143.43L266,153.71L273,143.43L280,153.71L287,143.43L294,153.71L301,143.43L308,133.14L315,143.43L329,164L336,153.71L364,194.86L371,184.57L378,174.29L385,184.57L399,164L406,174.29L413,184.57L420,174.29L427,164L434,174.29L441,164L448,174.29L455,184.57L462,174.29L469,164L476,174.29L497,143.43L504,153.71L546,92L553,102.29L560,112.57L567,102.29L581,81.71L588,92L630,30.29L637,40.57L651,20L658,30.29L679,61.14L686,50.86L700,71.43" style="vector-effect: none; fill: none; stroke: rgb(255, 153, 0); stroke-opacity: 1; stroke-width: 2px; opacity: 1;"/></g><g class="points"/><g class="text"/></g><g class="trace scatter traceb5797e" style="stroke-miterlimit: 2; opacity: 1;"><g class="fills"/><g class="errorbars"/><g class="lines"><path class="js-line" d="M0,133.14L35,81.71L42,92L49,102.29L56,92L63,81.71L70,92L84,71.43L91,81.71L105,61.14L112,71.43L133,102.29L140,92L154,112.57L161,102.29L168,112.57L175,102.29L182,92L189,102.29L196,92L203,102.29L224,133.14L231,122.86L238,112.57L245,122.86L259,102.29L266,112.57L280,92L287,102.29L329,164L336,153.71L343,143.43L350,153.71L385,205.14L392,194.86L399,184.57L406,194.86L420,174.29L427,184.57L441,205.14L448,194.86L455,205.14L462,194.86L469,205.14L476,194.86L504,153.71L511,164L518,153.71L525,164L546,133.14L553,143.43L560,133.14L567,143.43L574,153.71L581,143.43L595,122.86L602,133.14L609,143.43L616,133.14L623,122.86L630,133.14L637,143.43L644,133.14L672,174.29L679,164L693,184.57L700,174.29" style="vector-effect: none; fill: none; stroke: rgb(16, 150, 24); stroke-opacity: 1; stroke-width: 2px; opacity: 1;"/></g><g class="points"/><g class="text"/></g><g class="trace scatter trace198d92" style="stroke-miterlimit: 2; opacity: 1;"><g class="fills"/><g class="errorbars"/><g class="lines"><path class="js-line" d="M0,133.14L7,122.86L14,133.14L28,112.57L35,122.86L42,112.57L49,122.86L56,133.14L63,122.86L84,153.71L91,143.43L105,164L112,153.71L119,164L126,153.71L133,143.43L140,153.71L147,164L154,153.71L161,143.43L168,153.71L182,174.29L189,164L210,194.86L217,184.57L224,174.29L231,184.57L238,194.86L245,184.57L252,194.86L259,184.57L266,174.29L273,184.57L287,205.14L294,194.86L308,174.29L315,184.57L322,194.86L329,184.57L343,164L350,174.29L364,153.71L371,164L378,153.71L385,164L392,174.29L399,164L413,143.43L420,153.71L434,133.14L441,143.43L455,122.86L462,133.14L476,153.71L483,143.43L497,122.86L504,133.14L511,143.43L518,133.14L525,143.43L532,133.14L546,112.57L553,122.86L560,133.14L567,122.86L581,143.43L588,133.14L602,112.57L609,122.86L616,133.14L623,122.86L630,133.14L637,122.86L658,92L665,102.29L679,122.86L686,112.57L693,102.29L700,112.57" style="vector-effect: none; fill: none; stroke: rgb(153, 0, 153); stroke-opacity: 1; stroke-width: 2px; opacity: 1;"/></g><g class="points"/><g class="text"/></g></g></g><g class="overplot"/><path class="xlines-above crisp" d="M0,0" style="fill: none;"/><path class="ylines-above crisp" d="M0,0" style="fill: none;"/><g class="overlines-above"/><g class="xaxislayer-above"><g class="xtick"><text text-anchor="middle" x="0" y="467" transform="translate(50,0)" style="font-family: 'Open Sans', verdana, arial, sans-serif; font-size: 12px; fill: rgb(42, 63, 95); fill-opacity: 1; white-space: pre; opacity: 1;">0</text></g><g class="xtick"><text text-anchor="middle" x="0" y="467" style="font-family: 'Open Sans', verdana, arial, sans-serif; font-size: 12px; fill: rgb(42, 63, 95); fill-opacity: 1; white-space: pre; opacity: 1;" transform="translate(190,0)">20</text></g><g class="xtick"><text text-anchor="middle" x="0" y="467" style="font-family: 'Open Sans', verdana, arial, sans-serif; font-size: 12px; fill: rgb(42, 63, 95); fill-opacity: 1; white-space: pre; opacity: 1;" transform="translate(330,0)">40</text></g><g class="xtick"><text text-anchor="middle" x="0" y="467" style="font-family: 'Open Sans', verdana, arial, sans-serif; font-size: 12px; fill: rgb(42, 63, 95); fill-opacity: 1; white-space: pre; opacity: 1;" transform="translate(470,0)">60</text></g><g class="xtick"><text text-anchor="middle" x="0" y="467" style="font-family: 'Open Sans', verdana, arial, sans-serif; font-size: 12px; fill: rgb(42, 63, 95); fill-opacity: 1; white-space: pre; opacity: 1;" transform="translate(610,0)">80</text></g><g class="xtick"><text text-anchor="middle" x="0" y="467" style="font-family: 'Open Sans', verdana, arial, sans-serif; font-size: 12px; fill: rgb(42, 63, 95); fill-opacity: 1; white-space: pre; opacity: 1;" transform="translate(750,0)">100</text></g></g><g class="yaxislayer-above"><g class="ytick"><text text-anchor="end" x="45" y="4.199999999999999" transform="translate(0,440.29)" style="font-family: 'Open Sans', verdana, arial, sans-serif; font-size: 12px; fill: rgb(42, 63, 95); fill-opacity: 1; white-space: pre; opacity: 1;">75</text></g><g class="ytick"><text text-anchor="end" x="45" y="4.199999999999999" style="font-family: 'Open Sans', verdana, arial, sans-serif; font-size: 12px; fill: rgb(42, 63, 95); fill-opacity: 1; white-space: pre; opacity: 1;" transform="translate(0,388.86)">80</text></g><g class="ytick"><text text-anchor="end" x="45" y="4.199999999999999" style="font-family: 'Open Sans', verdana, arial, sans-serif; font-size: 12px; fill: rgb(42, 63, 95); fill-opacity: 1; white-space: pre; opacity: 1;" transform="translate(0,337.43)">85</text></g><g class="ytick"><text text-anchor="end" x="45" y="4.199999999999999" style="font-family: 'Open Sans', verdana, arial, sans-serif; font-size: 12px; fill: rgb(42, 63, 95); fill-opacity: 1; white-space: pre; opacity: 1;" transform="translate(0,286)">90</text></g><g class="ytick"><text text-anchor="end" x="45" y="4.199999999999999" style="font-family: 'Open Sans', verdana, arial, sans-serif; font-size: 12px; fill: rgb(42, 63, 95); fill-opacity: 1; white-space: pre; opacity: 1;" transform="translate(0,234.57)">95</text></g><g class="ytick"><text text-anchor="end" x="45" y="4.199999999999999" style="font-family: 'Open Sans', verdana, arial, sans-serif; font-size: 12px; fill: rgb(42, 63, 95); fill-opacity: 1; white-space: pre; opacity: 1;" transform="translate(0,183.14)">100</text></g><g class="ytick"><text text-anchor="end" x="45" y="4.199999999999999" style="font-family: 'Open Sans', verdana, arial, sans-serif; font-size: 12px; fill: rgb(42, 63, 95); fill-opacity: 1; white-space: pre; opacity: 1;" transform="translate(0,131.70999999999998)">105</text></g><g class="ytick"><text text-anchor="end" x="45" y="4.199999999999999" style="font-family: 'Open Sans', verdana, arial, sans-serif; font-size: 12px; fill: rgb(42, 63, 95); fill-opacity: 1; white-space: pre; opacity: 1;" transform="translate(0,80.28999999999999)">110</text></g></g><g class="overaxes-above"/></g></g><g class="polarlayer"/><g class="smithlayer"/><g class="ternarylayer"/><g class="geolayer"/><g class="funnelarealayer"/><g class="pielayer"/><g class="iciclelayer"/><g class="treemaplayer"/><g class="sunburstlayer"/><g class="glimages"/><defs id="topdefs-a23189"><g class="clips"/></defs><g class="layer-above"><g class="imagelayer"/><g class="shapelayer"/></g><g class="infolayer"><g class="g-gtitle"/><g class="g-xtitle"/><g class="g-ytitle"/></g></svg>