<svg class="main-svg" xmlns="http://www.w3.org/2000/svg" xmlns:xlink="http://www.w3.org/1999/xlink" width="800" height="500" style="" viewBox="0 0 800 500"><rect x="0" y="0" width="800" height="500" style="fill: rgb(0, 0, 0); fill-opacity: 0;"/><defs id="defs-08978f"><g class="clips"><clipPath id="clip08978fxyplot" class="plotclip"><rect width="700" height="392"/></clipPath><clipPath class="axesclip" id="clip08978fx"><rect x="50" y="0" width="700" height="500"/></clipPath><clipPath class="axesclip" id="clip08978fy"><rect x="0" y="50" width="800" height="392"/></clipPath><clipPath class="axesclip" id="clip08978fxy"><rect x="50" y="50" width="700" height="392"/></clipPath></g><g class="gradients"/><g class="patterns"/></defs><g class="bglayer"><rect class="bg" x="46" y="46" width="708" height="400" style="fill: rgb(0, 0, 0); fill-opacity: 0; stroke-width: 0;"/></g><g class="layer-below"><g class="imagelayer"/><g class="shapelayer"/></g><g class="cartesianlayer"><g class="subplot xy"><g class="layer-subplot"><g class="shapelayer"/><g class="imagelayer"/></g><g class="minor-gridlayer"><g class="x"/><g class="y"/></g><g class="gridlayer"><g class="x"><path class="xgrid crisp" transform="translate(225,0)" d="M0,50v392" style="stroke: rgb(235, 240, 248); stroke-opacity: 1; stroke-width: 1px;"/><path class="xgrid crisp" transform="translate(400,0)" d="M0,50v392" style="stroke: rgb(235, 240, 248); stroke-opacity: 1; stroke-width: 1px;"/><path class="xgrid crisp" transform="translate(575,0)" d="M0,50v392" style="stroke: rgb(235, 240, 248); stroke-opacity: 1; stroke-width: 1px;"/></g><g class="y"><path class="ygrid crisp" transform="translate(0,367.15)" d="M50,0h700" style="stroke: rgb(235, 240, 248); stroke-opacity: 1; stroke-width: 1px;"/><path class="ygrid crisp" transform="translate(0,311.89)" d="M50,0h700" style="stroke: rgb(235, 240, 248); stroke-opacity: 1; stroke-width: 1px;"/><path class="ygrid crisp" transform="translate(0,256.64)" d="M50,0h700" style="stroke: rgb(235, 240, 248); stroke-opacity: 1; stroke-width: 1px;"/><path class="ygrid crisp" transform="translate(0,201.38)" d="M50,0h700" style="stroke: rgb(235, 240, 248); stroke-opacity: 1; stroke-width: 1px;"/><path class="ygrid crisp" transform="translate(0,146.13)" d="M50,0h700" style="stroke: rgb(235, 240, 248); stroke-opacity: 1; stroke-width: 1px;"/><path class="ygrid crisp" transform="translate(0,90.88)" d="M50,0h700" style="stroke: rgb(235, 240, 248); stroke-opacity: 1; stroke-width: 1px;"/></g></g><g class="zerolinelayer"><path class="xzl zl crisp" transform="translate(50,0)" d="M0,50v392" style="stroke: rgb(235, 240, 248); stroke-opacity: 1; stroke-width: 2px;"/><path class="yzl zl crisp" transform="translate(0,422.4)" d="M50,0h700" style="stroke: rgb(235, 240, 248); stroke-opacity: 1; stroke-width: 2px;"/></g><path class="xlines-below"/><path class="ylines-below"/><g class="overlines-below"/><g class="xaxislayer-below"/><g class="yaxislayer-below"/><g class="overaxes-below"/><g class="plot" transform="translate(50,50)" clip-path="url(#clip08978fxyplot)"><g class="scatterlayer mlayer"><g class="trace scatter trace7d7235" style="stroke-miterlimit: 2; opacity: 1;"><g class="fills"/><g class="errorbars"/><g class="lines"><path class="js-line" d="M0,317.15L7.07,281.22L14.14,260.3L21.21,242.66L28.28,227.53L35.35,214.82L42.42,204.58L49.49,196.86L56.57,191.71L63.64,189.07L70.71,188.84L77.78,190.84L84.85,194.79L91.92,200.37L98.99,207.19L127.27,238.02L134.34,244.35L141.41,249.32L148.48,252.6L155.56,253.94L162.63,253.18L169.7,250.22L176.77,245.1L183.84,237.9L190.91,228.82L205.05,206.17L212.12,193.32L233.33,153.81L240.4,141.8L247.47,131.07L254.55,121.96L261.62,114.75L268.69,109.67L275.76,106.82L282.83,106.24L289.9,107.88L296.97,111.58L304.04,117.12L311.11,124.2L325.25,141.44L332.32,150.76L346.46,168.53L353.54,176.12L360.61,182.32L367.68,186.8L374.75,189.32L381.82,189.7L388.89,187.85L395.96,183.79L403.03,177.61L410.1,169.49L417.17,159.7L424.24,148.57L459.6,87.34L466.67,77.04L473.74,68.32L480.81,61.46L487.88,56.68L494.95,54.11L502.02,53.8L509.09,55.7L516.16,59.68L523.23,65.51L530.3,72.89L537.37,81.47L565.66,119.23L572.73,127.32L579.8,134.05L586.87,139.08L593.94,142.17L601.01,143.12L608.08,141.84L615.15,138.34L622.22,132.69L629.29,125.08L636.36,115.76L643.43,105.05L664.65,68.64L671.72,56.54L685.86,35.03L692.93,26.4L700,19.6" style="vector-effect: none; fill: none; stroke: rgb(51, 102, 204); stroke-opacity: 1; stroke-width: 2px; opacity: 1;"/></g><g class="points"/><g class="text"/></g><g class="trace scatter traceea131c" style="stroke-miterlimit: 2; opacity: 1;"><g class="fills"><g><path class="js-fill" d="M0,372.4L0,317.15L35,317.15L35,372.4Z" style="fill: rgb(255, 127, 80); fill-opacity: 0.6; stroke-width: 0;"/></g></g><g class="errorbars"/><g class="lines"><path class="js-line" d="M0,372.4L0,317.15L35,317.15L35,372.4" style="vector-effect: none; fill: none; stroke: rgb(255, 127, 80); stroke-opacity: 0.6; stroke-width: 2px; opacity: 1;"/></g><g class="points"/><g class="text"/></g><g class="trace scatter trace287f29" style="stroke-miterlimit: 2; opacity: 1;"><g class="fills"><g><path class="js-fill" d="M35,372.4L35,215.4L70,215.4L70,372.4Z" style="fill: rgb(255, 127, 80); fill-opacity: 0.6; stroke-width: 0;"/></g></g><g class="errorbars"/><g class="lines"><path class="js-line" d="M35,372.4L35,215.4L70,215.4L70,372.4" style="vector-effect: none; fill: none; stroke: rgb(255, 127, 80); stroke-opacity: 0.6; stroke-width: 2px; opacity: 1;"/></g><g class="points"/><g class="text"/></g><g class="trace scatter trace51f22e" style="stroke-miterlimit: 2; opacity: 1;"><g class="fills"><g><path class="js-fill" d="M70,372.4L70,188.76L105,188.76L105,372.4Z" style="fill: rgb(255, 127, 80); fill-opacity: 0.6; stroke-width: 0;"/></g></g><g class="errorbars"/><g class="lines"><path class="js-line" d="M70,372.4L70,188.76L105,188.76L105,372.4" style="vector-effect: none; fill: none; stroke: rgb(255, 127, 80); stroke-opacity: 0.6; stroke-width: 2px; opacity: 1;"/></g><g class="points"/><g class="text"/></g><g class="trace scatter traceff16bb" style="stroke-miterlimit: 2; opacity: 1;"><g class="fills"><g><path class="js-fill" d="M105,372.4L105,213.65L140,213.65L140,372.4Z" style="fill: rgb(255, 127, 80); fill-opacity: 0.6; stroke-width: 0;"/></g></g><g class="errorbars"/><g class="lines"><path class="js-line" d="M105,372.4L105,213.65L140,213.65L140,372.4" style="vector-effect: none; fill: none; stroke: rgb(255, 127, 80); stroke-opacity: 0.6; stroke-width: 2px; opacity: 1;"/></g><g class="points"/><g class="text"/></g><g class="trace scatter trace2a3716" style="stroke-miterlimit: 2; opacity: 1;"><g class="fills"><g><path class="js-fill" d="M140,372.4L140,248.45L175,248.45L175,372.4Z" style="fill: rgb(255, 127, 80); fill-opacity: 0.6; stroke-width: 0;"/></g></g><g class="errorbars"/><g class="lines"><path class="js-line" d="M140,372.4L140,248.45L175,248.45L175,372.4" style="vector-effect: none; fill: none; stroke: rgb(255, 127, 80); stroke-opacity: 0.6; stroke-width: 2px; opacity: 1;"/></g><g class="points"/><g class="text"/></g><g class="trace scatter traceb95314" style="stroke-miterlimit: 2; opacity: 1;"><g class="fills"><g><path class="js-fill" d="M175,372.4L175,246.58L210,246.58L210,372.4Z" style="fill: rgb(255, 127, 80); fill-opacity: 0.6; stroke-width: 0;"/></g></g><g class="errorbars"/><g class="lines"><path class="js-line" d="M175,372.4L175,246.58L210,246.58L210,372.4" style="vector-effect: none; fill: none; stroke: rgb(255, 127, 80); stroke-opacity: 0.6; stroke-width: 2px; opacity: 1;"/></g><g class="points"/><g class="text"/></g><g class="trace scatter traced5757c" style="stroke-miterlimit: 2; opacity: 1;"><g class="fills"><g><path class="js-fill" d="M210,372.4L210,197.24L245,197.24L245,372.4Z" style="fill: rgb(255, 127, 80); fill-opacity: 0.6; stroke-width: 0;"/></g></g><g class="errorbars"/><g class="lines"><path class="js-line" d="M210,372.4L210,197.24L245,197.24L245,372.4" style="vector-effect: none; fill: none; stroke: rgb(255, 127, 80); stroke-opacity: 0.6; stroke-width: 2px; opacity: 1;"/></g><g class="points"/><g class="text"/></g><g class="trace scatter traceb87747" style="stroke-miterlimit: 2; opacity: 1;"><g class="fills"><g><path class="js-fill" d="M245,372.4L245,134.66L280,134.66L280,372.4Z" style="fill: rgb(255, 127, 80); fill-opacity: 0.6; stroke-width: 0;"/></g></g><g class="errorbars"/><g class="lines"><path class="js-line" d="M245,372.4L245,134.66L280,134.66L280,372.4" style="vector-effect: none; fill: none; stroke: rgb(255, 127, 80); stroke-opacity: 0.6; stroke-width: 2px; opacity: 1;"/></g><g class="points"/><g class="text"/></g><g class="trace scatter trace11cd2b" style="stroke-miterlimit: 2; opacity: 1;"><g class="fills"><g><path class="js-fill" d="M280,372.4L280,106.2L315,106.2L315,372.4Z" style="fill: rgb(255, 127, 80); fill-opacity: 0.6; stroke-width: 0;"/></g></g><g class="errorbars"/><g class="lines"><path class="js-line" d="M280,372.4L280,106.2L315,106.2L315,372.4" style="vector-effect: none; fill: none; stroke: rgb(255, 127, 80); stroke-opacity: 0.6; stroke-width: 2px; opacity: 1;"/></g><g class="points"/><g class="text"/></g><g class="trace scatter trace547d7c" style="stroke-miterlimit: 2; opacity: 1;"><g class="fills"><g><path class="js-fill" d="M315,372.4L315,128.61L350,128.61L350,372.4Z" style="fill: rgb(255, 127, 80); fill-opacity: 0.6; stroke-width: 0;"/></g></g><g class="errorbars"/><g class="lines"><path class="js-line" d="M315,372.4L315,128.61L350,128.61L350,372.4" style="vector-effect: none; fill: none; stroke: rgb(255, 127, 80); stroke-opacity: 0.6; stroke-width: 2px; opacity: 1;"/></g><g class="points"/><g class="text"/></g><g class="trace scatter trace4198cc" style="stroke-miterlimit: 2; opacity: 1;"><g class="fills"><g><path class="js-fill" d="M350,372.4L350,172.48L385,172.48L385,372.4Z" style="fill: rgb(255, 127, 80); fill-opacity: 0.6; stroke-width: 0;"/></g></g><g class="errorbars"/><g class="lines"><path class="js-line" d="M350,372.4L350,172.48L385,172.48L385,372.4" style="vector-effect: none; fill: none; stroke: rgb(255, 127, 80); stroke-opacity: 0.6; stroke-width: 2px; opacity: 1;"/></g><g class="points"/><g class="text"/></g><g class="trace scatter trace8cf88f" style="stroke-miterlimit: 2; opacity: 1;"><g class="fills"><g><path class="js-fill" d="M385,372.4L385,189.14L420,189.14L420,372.4Z" style="fill: rgb(255, 127, 80); fill-opacity: 0.6; stroke-width: 0;"/></g></g><g class="errorbars"/><g class="lines"><path class="js-line" d="M385,372.4L385,189.14L420,189.14L420,372.4" style="vector-effect: none; fill: none; stroke: rgb(255, 127, 80); stroke-opacity: 0.6; stroke-width: 2px; opacity: 1;"/></g><g class="points"/><g class="text"/></g><g class="trace scatter tracef3fa98" style="stroke-miterlimit: 2; opacity: 1;"><g class="fills"><g><path class="js-fill" d="M420,372.4L420,155.39L455,155.39L455,372.4Z" style="fill: rgb(255, 127, 80); fill-opacity: 0.6; stroke-width: 0;"/></g></g><g class="errorbars"/><g class="lines"><path class="js-line" d="M420,372.4L420,155.39L455,155.39L455,372.4" style="vector-effect: none; fill: none; stroke: rgb(255, 127, 80); stroke-opacity: 0.6; stroke-width: 2px; opacity: 1;"/></g><g class="points"/><g class="text"/></g><g class="trace scatter trace38889d" style="stroke-miterlimit: 2; opacity: 1;"><g class="fills"><g><path class="js-fill" d="M455,372.4L455,94.71L490,94.71L490,372.4Z" style="fill: rgb(255, 127, 80); fill-opacity: 0.6; stroke-width: 0;"/></g></g><g class="errorbars"/><g class="lines"><path class="js-line" d="M455,372.4L455,94.71L490,94.71L490,372.4" style="vector-effect: none; fill: none; stroke: rgb(255, 127, 80); stroke-opacity: 0.6; stroke-width: 2px; opacity: 1;"/></g><g class="points"/><g class="text"/></g><g class="trace scatter trace23c5aa" style="stroke-miterlimit: 2; opacity: 1;"><g class="fills"><g><path class="js-fill" d="M490,372.4L490,55.67L525,55.67L525,372.4Z" style="fill: rgb(255, 127, 80); fill-opacity: 0.6; stroke-width: 0;"/></g></g><g class="errorbars"/><g class="lines"><path class="js-line" d="M490,372.4L490,55.67L525,55.67L525,372.4" style="vector-effect: none; fill: none; stroke: rgb(255, 127, 80); stroke-opacity: 0.6; stroke-width: 2px; opacity: 1;"/></g><g class="points"/><g class="text"/></g><g class="trace scatter traceaa9d14" style="stroke-miterlimit: 2; opacity: 1;"><g class="fills"><g><path class="js-fill" d="M525,372.4L525,67.22L560,67.22L560,372.4Z" style="fill: rgb(255, 127, 80); fill-opacity: 0.6; stroke-width: 0;"/></g></g><g class="errorbars"/><g class="lines"><path class="js-line" d="M525,372.4L525,67.22L560,67.22L560,372.4" style="vector-effect: none; fill: none; stroke: rgb(255, 127, 80); stroke-opacity: 0.6; stroke-width: 2px; opacity: 1;"/></g><g class="points"/><g class="text"/></g><g class="trace scatter trace417376" style="stroke-miterlimit: 2; opacity: 1;"><g class="fills"><g><path class="js-fill" d="M560,372.4L560,112.04L595,112.04L595,372.4Z" style="fill: rgb(255, 127, 80); fill-opacity: 0.6; stroke-width: 0;"/></g></g><g class="errorbars"/><g class="lines"><path class="js-line" d="M560,372.4L560,112.04L595,112.04L595,372.4" style="vector-effect: none; fill: none; stroke: rgb(255, 127, 80); stroke-opacity: 0.6; stroke-width: 2px; opacity: 1;"/></g><g class="points"/><g class="text"/></g><g class="trace scatter trace36aa38" style="stroke-miterlimit: 2; opacity: 1;"><g class="fills"><g><path class="js-fill" d="M595,372.4L595,142.45L630,142.45L630,372.4Z" style="fill: rgb(255, 127, 80); fill-opacity: 0.6; stroke-width: 0;"/></g></g><g class="errorbars"/><g class="lines"><path class="js-line" d="M595,372.4L595,142.45L630,142.45L630,372.4" style="vector-effect: none; fill: none; stroke: rgb(255, 127, 80); stroke-opacity: 0.6; stroke-width: 2px; opacity: 1;"/></g><g class="points"/><g class="text"/></g><g class="trace scatter trace4e802e" style="stroke-miterlimit: 2; opacity: 1;"><g class="fills"><g><path class="js-fill" d="M630,372.4L630,124.22L665,124.22L665,372.4Z" style="fill: rgb(255, 127, 80); fill-opacity: 0.6; stroke-width: 0;"/></g></g><g class="errorbars"/><g class="lines"><path class="js-line" d="M630,372.4L630,124.22L665,124.22L665,372.4" style="vector-effect: none; fill: none; stroke: rgb(255, 127, 80); stroke-opacity: 0.6; stroke-width: 2px; opacity: 1;"/></g><g class="points"/><g class="text"/></g><g class="trace scatter trace55ed36" style="stroke-miterlimit: 2; opacity: 1;"><g class="fills"><g><path class="js-fill" d="M665,372.4L665,68.02L700,68.02L700,372.4Z" style="fill: rgb(255, 127, 80); fill-opacity: 0.6; stroke-width: 0;"/></g></g><g class="errorbars"/><g class="lines"><path class="js-line" d="M665,372.4L665,68.02L700,68.02L700,372.4" style="vector-effect: none; fill: none; stroke: rgb(255, 127, 80); stroke-opacity: 0.6; stroke-width: 2px; opacity: 1;"/></g><g class="points"/><g class="text"/></g></g></g><g class="overplot"/><path class="xlines-above crisp" d="M0,0" style="fill: none;"/><path class="ylines-above crisp" d="M0,0" style="fill: none;"/><g class="overlines-above"/><g class="xaxislayer-above"><g class="xtick"><text text-anchor="middle" x="0" y="459" transform="translate(50,0)" style="font-family: 'Open Sans', verdana, arial, sans-serif; font-size: 12px; fill: rgb(42, 63, 95); fill-opacity: 1; white-space: pre; opacity: 1;">0</text></g><g class="xtick"><text text-anchor="middle" x="0" y="459" style="font-family: 'Open Sans', verdana, arial, sans-serif; font-size: 12px; fill: rgb(42, 63, 95); fill-opacity: 1; white-space: pre; opacity: 1;" transform="translate(225,0)">5</text></g><g class="xtick"><text text-anchor="middle" x="0" y="459" style="font-family: 'Open Sans', verdana, arial, sans-serif; font-size: 12px; fill: rgb(42, 63, 95); fill-opacity: 1; white-space: pre; opacity: 1;" transform="translate(400,0)">10</text></g><g class="xtick"><text text-anchor="middle" x="0" y="459" style="font-family: 'Open Sans', verdana, arial, sans-serif; font-size: 12px; fill: rgb(42, 63, 95); fill-opacity: 1; white-space: pre; opacity: 1;" transform="translate(575,0)">15</text></g><g class="xtick"><text text-anchor="middle" x="0" y="459" style="font-family: 'Open Sans', verdana, arial, sans-serif; font-size: 12px; fill: rgb(42, 63, 95); fill-opacity: 1; white-space: pre; opacity: 1;" transform="translate(750,0)">20</text></g></g><g class="yaxislayer-above"><g class="ytick"><text text-anchor="end" x="45" y="4.199999999999999" transform="translate(0,422.4)" style="font-family: 'Open Sans', verdana, arial, sans-serif; font-size: 12px; fill: rgb(42, 63, 95); fill-opacity: 1; white-space: pre; opacity: 1;">0</text></g><g class="ytick"><text text-anchor="end" x="45" y="4.199999999999999" style="font-family: 'Open Sans', verdana, arial, sans-serif; font-size: 12px; fill: rgb(42, 63, 95); fill-opacity: 1; white-space: pre; opacity: 1;" transform="translate(0,367.15)">1</text></g><g class="ytick"><text text-anchor="end" x="45" y="4.199999999999999" style="font-family: 'Open Sans', verdana, arial, sans-serif; font-size: 12px; fill: rgb(42, 63, 95); fill-opacity: 1; white-space: pre; opacity: 1;" transform="translate(0,311.89)">2</text></g><g class="ytick"><text text-anchor="end" x="45" y="4.199999999999999" style="font-family: 'Open Sans', verdana, arial, sans-serif; font-size: 12px; fill: rgb(42, 63, 95); fill-opacity: 1; white-space: pre; opacity: 1;" transform="translate(0,256.64)">3</text></g><g class="ytick"><text text-anchor="end" x="45" y="4.199999999999999" style="font-family: 'Open Sans', verdana, arial, sans-serif; font-size: 12px; fill: rgb(42, 63, 95); fill-opacity: 1; white-space: pre; opacity: 1;" transform="translate(0,201.38)">4</text></g><g class="ytick"><text text-anchor="end" x="45" y="4.199999999999999" style="font-family: 'Open Sans', verdana, arial, sans-serif; font-size: 12px; fill: rgb(42, 63, 95); fill-opacity: 1; white-space: pre; opacity: 1;" transform="translate(0,146.13)">5</text></g><g class="ytick"><text text-anchor="end" x="45" y="4.199999999999999" style="font-family: 'Open Sans', verdana, arial, sans-serif; font-size: 12px; fill: rgb(42, 63, 95); fill-opacity: 1; white-space: pre; opacity: 1;" transform="translate(0,90.88)">6</text></g></g><g class="overaxes-above"/></g></g><g class="polarlayer"/><g class="smithlayer"/><g class="ternarylayer"/><g class="geolayer"/><g class="funnelarealayer"/><g class="pielayer"/><g class="iciclelayer"/><g class="treemaplayer"/><g class="sunburstlayer"/><g class="glimages"/><defs id="topdefs-08978f"><g class="clips"/></defs><g class="layer-above"><g class="imagelayer"/><g class="shapelayer"/></g><g class="infolayer"><g class="g-gtitle"><text class="gtitle" x="400" y="25" text-anchor="middle" dy="0em" style="font-family: 'Open Sans', verdana, arial, sans-serif; font-size: 17px; fill: rgb(42, 63, 95); opacity: 1; font-weight: normal; white-space: pre;">Integral approximation</text></g><g class="g-xtitle"><text class="xtitle" x="400" y="483.3" text-anchor="middle" style="font-family: 'Open Sans', verdana, arial, sans-serif; font-size: 14px; fill: rgb(42, 63, 95); opacity: 1; font-weight: normal; white-space: pre;">x</text></g><g class="g-ytitle"><text class="ytitle" transform="rotate(-90,17.825000000000003,246)" x="17.825000000000003" y="246" text-anchor="middle" style="font-family: 'Open Sans', verdana, arial, sans-serif; font-size: 14px; fill: rgb(42, 63, 95); opacity: 1; font-weight: normal; white-space: pre;">f(x)</text></g></g></svg>