<svg class="main-svg" xmlns="http://www.w3.org/2000/svg" xmlns:xlink="http://www.w3.org/1999/xlink" width="800" height="500" style="" viewBox="0 0 800 500"><rect x="0" y="0" width="800" height="500" style="fill: rgb(0, 0, 0); fill-opacity: 0;"/><defs id="defs-c64aaa"><g class="clips"><clipPath id="clipc64aaaxyplot" class="plotclip"><rect width="700" height="400"/></clipPath><clipPath class="axesclip" id="clipc64aaax"><rect x="50" y="0" width="700" height="500"/></clipPath><clipPath class="axesclip" id="clipc64aaay"><rect x="0" y="50" width="800" height="400"/></clipPath><clipPath class="axesclip" id="clipc64aaaxy"><rect x="50" y="50" width="700" height="400"/></clipPath></g><g class="gradients"/><g class="patterns"/></defs><g class="bglayer"><rect class="bg" x="46" y="46" width="708" height="408" style="fill: rgb(0, 0, 0); fill-opacity: 0; stroke-width: 0;"/></g><g class="layer-below"><g class="imagelayer"/><g class="shapelayer"/></g><g class="cartesianlayer"><g class="subplot xy"><g class="layer-subplot"><g class="shapelayer"/><g class="imagelayer"/></g><g class="minor-gridlayer"><g class="x"/><g class="y"/></g><g class="gridlayer"><g class="x"><path class="xgrid crisp" transform="translate(190,0)" d="M0,50v400" style="stroke: rgb(40, 52, 66); stroke-opacity: 1; stroke-width: 1px;"/><path class="xgrid crisp" transform="translate(330,0)" d="M0,50v400" style="stroke: rgb(40, 52, 66); stroke-opacity: 1; stroke-width: 1px;"/><path class="xgrid crisp" transform="translate(470,0)" d="M0,50v400" style="stroke: rgb(40, 52, 66); stroke-opacity: 1; stroke-width: 1px;"/><path class="xgrid crisp" transform="translate(610,0)" d="M0,50v400" style="stroke: rgb(40, 52, 66); stroke-opacity: 1; stroke-width: 1px;"/></g><g class="y"><path class="ygrid crisp" transform="translate(0,418.39)" d="M50,0h700" style="stroke: rgb(40, 52, 66); stroke-opacity: 1; stroke-width: 1px;"/><path class="ygrid crisp" transform="translate(0,360.32)" d="M50,0h700" style="stroke: rgb(40, 52, 66); stroke-opacity: 1; stroke-width: 1px;"/><path class="ygrid crisp" transform="translate(0,302.26)" d="M50,0h700" style="stroke: rgb(40, 52, 66); stroke-opacity: 1; stroke-width: 1px;"/><path class="ygrid crisp" transform="translate(0,244.19)" d="M50,0h700" style="stroke: rgb(40, 52, 66); stroke-opacity: 1; stroke-width: 1px;"/><path class="ygrid crisp" transform="translate(0,186.13)" d="M50,0h700" style="stroke: rgb(40, 52, 66); stroke-opacity: 1; stroke-width: 1px;"/><path class="ygrid crisp" transform="translate(0,128.06)" d="M50,0h700" style="stroke: rgb(40, 52, 66); stroke-opacity: 1; stroke-width: 1px;"/><path class="ygrid crisp" transform="translate(0,70)" d="M50,0h700" style="stroke: rgb(40, 52, 66); stroke-opacity: 1; stroke-width: 1px;"/></g></g><g class="zerolinelayer"><path class="xzl zl crisp" transform="translate(50,0)" d="M0,50v400" style="stroke: rgb(40, 52, 66); stroke-opacity: 1; stroke-width: 2px;"/></g><path class="xlines-below"/><path class="ylines-below"/><g class="overlines-below"/><g class="xaxislayer-below"/><g class="yaxislayer-below"/><g class="overaxes-below"/><g class="plot" transform="translate(50,50)" clip-path="url(#clipc64aaaxyplot)"><g class="scatterlayer mlayer"><g class="trace scatter tracef526df" style="stroke-miterlimit: 2; opacity: 1;"><g class="fills"/><g class="errorbars"/><g class="lines"><path class="js-line" d="M0,194.19L7,205.81L14,194.19L49,136.13L56,147.74L70,170.97L77,159.35L98,194.19L105,182.58L140,124.52L147,136.13L161,112.9L168,124.52L175,136.13L182,124.52L210,78.06L217,89.68L231,112.9L238,101.29L245,112.9L252,101.29L259,112.9L266,101.29L287,136.13L294,124.52L301,112.9L308,124.52L315,136.13L322,124.52L329,112.9L336,124.52L343,136.13L350,124.52L357,136.13L364,124.52L371,136.13L378,124.52L392,147.74L399,136.13L413,159.35L420,147.74L434,124.52L441,136.13L448,124.52L455,136.13L462,124.52L469,136.13L476,124.52L483,136.13L497,112.9L504,124.52L511,112.9L518,124.52L525,136.13L532,124.52L546,101.29L553,112.9L560,101.29L567,112.9L602,170.97L609,159.35L616,147.74L623,159.35L630,170.97L637,159.35L658,194.19L665,182.58L679,205.81L686,194.19L700,217.42" style="vector-effect: none; fill: none; stroke: rgb(51, 102, 204); stroke-opacity: 1; stroke-width: 2px; opacity: 1;"/></g><g class="points"/><g class="text"/></g><g class="trace scatter trace9cd233" style="stroke-miterlimit: 2; opacity: 1;"><g class="fills"/><g class="errorbars"/><g class="lines"><path class="js-line" d="M0,194.19L21,159.35L28,170.97L42,194.19L49,182.58L84,124.52L91,136.13L105,159.35L112,147.74L119,136.13L126,147.74L133,136.13L140,147.74L147,136.13L154,147.74L238,287.1L245,275.48L252,287.1L259,275.48L280,310.32L287,298.71L308,263.87L315,275.48L336,240.65L343,252.26L350,263.87L357,252.26L399,182.58L406,194.19L413,205.81L420,194.19L441,229.03L448,217.42L455,229.03L462,217.42L469,205.81L476,217.42L483,229.03L490,217.42L504,240.65L511,229.03L525,205.81L532,217.42L539,205.81L546,217.42L553,229.03L560,217.42L574,194.19L581,205.81L588,194.19L595,205.81L609,229.03L616,217.42L623,229.03L630,217.42L637,229.03L644,217.42L658,194.19L665,205.81L672,217.42L679,205.81L686,194.19L693,205.81L700,194.19" style="vector-effect: none; fill: none; stroke: rgb(220, 57, 18); stroke-opacity: 1; stroke-width: 2px; opacity: 1;"/></g><g class="points"/><g class="text"/></g><g class="trace scatter tracea42e31" style="stroke-miterlimit: 2; opacity: 1;"><g class="fills"/><g class="errorbars"/><g class="lines"><path class="js-line" d="M0,194.19L7,182.58L14,194.19L35,159.35L42,170.97L49,182.58L56,170.97L63,159.35L70,170.97L77,182.58L84,170.97L91,182.58L98,170.97L119,205.81L126,194.19L133,205.81L140,194.19L147,205.81L154,194.19L168,217.42L175,205.81L182,194.19L189,205.81L217,252.26L224,240.65L238,217.42L245,229.03L259,252.26L266,240.65L273,229.03L280,240.65L287,252.26L294,240.65L301,252.26L308,240.65L315,252.26L322,240.65L329,229.03L336,240.65L343,229.03L350,240.65L364,263.87L371,252.26L399,298.71L406,287.1L427,252.26L434,263.87L441,252.26L448,263.87L462,240.65L469,252.26L483,229.03L490,240.65L504,263.87L511,252.26L532,287.1L539,275.48L546,287.1L553,275.48L560,287.1L567,275.48L574,263.87L581,275.48L616,333.55L623,321.94L644,287.1L651,298.71L672,333.55L679,321.94L700,356.77" style="vector-effect: none; fill: none; stroke: rgb(255, 153, 0); stroke-opacity: 1; stroke-width: 2px; opacity: 1;"/></g><g class="points"/><g class="text"/></g><g class="trace scatter traceba1ce2" style="stroke-miterlimit: 2; opacity: 1;"><g class="fills"/><g class="errorbars"/><g class="lines"><path class="js-line" d="M0,194.19L14,217.42L21,205.81L28,194.19L35,205.81L42,217.42L49,205.81L70,240.65L77,229.03L84,217.42L91,229.03L112,263.87L119,252.26L126,263.87L133,252.26L140,240.65L147,252.26L168,287.1L175,275.48L217,345.16L224,333.55L245,368.39L252,356.77L259,345.16L266,356.77L273,345.16L280,356.77L294,380L301,368.39L315,345.16L322,356.77L329,368.39L336,356.77L350,333.55L357,345.16L364,356.77L371,345.16L406,287.1L413,298.71L420,310.32L427,298.71L434,287.1L441,298.71L448,287.1L455,298.71L462,310.32L469,298.71L476,310.32L483,298.71L497,275.48L504,287.1L511,298.71L518,287.1L525,275.48L532,287.1L546,310.32L553,298.71L560,310.32L567,298.71L588,333.55L595,321.94L602,310.32L609,321.94L623,345.16L630,333.55L637,345.16L644,333.55L651,345.16L658,333.55L672,356.77L679,345.16L693,368.39L700,356.77" style="vector-effect: none; fill: none; stroke: rgb(16, 150, 24); stroke-opacity: 1; stroke-width: 2px; opacity: 1;"/></g><g class="points"/><g class="text"/></g><g class="trace scatter trace4b7b93" style="stroke-miterlimit: 2; opacity: 1;"><g class="fills"/><g class="errorbars"/><g class="lines"><path class="js-line" d="M0,194.19L7,182.58L14,194.19L21,205.81L28,194.19L42,217.42L49,205.81L70,170.97L77,182.58L98,147.74L105,159.35L112,147.74L119,159.35L126,147.74L133,159.35L154,194.19L161,182.58L168,170.97L175,182.58L182,194.19L189,182.58L196,194.19L203,182.58L210,194.19L217,182.58L231,205.81L238,194.19L252,170.97L259,182.58L273,205.81L280,194.19L301,159.35L308,170.97L322,147.74L329,159.35L336,170.97L343,159.35L357,182.58L364,170.97L371,159.35L378,170.97L385,182.58L392,170.97L406,147.74L413,159.35L434,194.19L441,182.58L469,136.13L476,147.74L483,159.35L490,147.74L497,159.35L504,147.74L518,124.52L525,136.13L532,124.52L539,136.13L553,159.35L560,147.74L637,20L644,31.61L651,43.23L658,31.61L665,20L672,31.61L686,54.84L693,43.23L700,31.61" style="vector-effect: none; fill: none; stroke: rgb(153, 0, 153); stroke-opacity: 1; stroke-width: 2px; opacity: 1;"/></g><g class="points"/><g class="text"/></g></g></g><g class="overplot"/><path class="xlines-above crisp" d="M0,0" style="fill: none;"/><path class="ylines-above crisp" d="M0,0" style="fill: none;"/><g class="overlines-above"/><g class="xaxislayer-above"><g class="xtick"><text text-anchor="middle" x="0" y="467" transform="translate(50,0)" style="font-family: 'Open Sans', verdana, arial, sans-serif; font-size: 12px; fill: rgb(242, 245, 250); fill-opacity: 1; white-space: pre; opacity: 1;">0</text></g><g class="xtick"><text text-anchor="middle" x="0" y="467" style="font-family: 'Open Sans', verdana, arial, sans-serif; font-size: 12px; fill: rgb(242, 245, 250); fill-opacity: 1; white-space: pre; opacity: 1;" transform="translate(190,0)">20</text></g><g class="xtick"><text text-anchor="middle" x="0" y="467" style="font-family: 'Open Sans', verdana, arial, sans-serif; font-size: 12px; fill: rgb(242, 245, 250); fill-opacity: 1; white-space: pre; opacity: 1;" transform="translate(330,0)">40</text></g><g class="xtick"><text text-anchor="middle" x="0" y="467" style="font-family: 'Open Sans', verdana, arial, sans-serif; font-size: 12px; fill: rgb(242, 245, 250); fill-opacity: 1; white-space: pre; opacity: 1;" transform="translate(470,0)">60</text></g><g class="xtick"><text text-anchor="middle" x="0" y="467" style="font-family: 'Open Sans', verdana, arial, sans-serif; font-size: 12px; fill: rgb(242, 245, 250); fill-opacity: 1; white-space: pre; opacity: 1;" transform="translate(610,0)">80</text></g><g class="xtick"><text text-anchor="middle" x="0" y="467" style="font-family: 'Open Sans', verdana, arial, sans-serif; font-size: 12px; fill: rgb(242, 245, 250); fill-opacity: 1; white-space: pre; opacity: 1;" transform="translate(750,0)">100</text></g></g><g class="yaxislayer-above"><g class="ytick"><text text-anchor="end" x="45" y="4.199999999999999" transform="translate(0,418.39)" style="font-family: 'Open Sans', verdana, arial, sans-serif; font-size: 12px; fill: rgb(242, 245, 250); fill-opacity: 1; white-space: pre; opacity: 1;">85</text></g><g class="ytick"><text text-anchor="end" x="45" y="4.199999999999999" style="font-family: 'Open Sans', verdana, arial, sans-serif; font-size: 12px; fill: rgb(242, 245, 250); fill-opacity: 1; white-space: pre; opacity: 1;" transform="translate(0,360.32)">90</text></g><g class="ytick"><text text-anchor="end" x="45" y="4.199999999999999" style="font-family: 'Open Sans', verdana, arial, sans-serif; font-size: 12px; fill: rgb(242, 245, 250); fill-opacity: 1; white-space: pre; opacity: 1;" transform="translate(0,302.26)">95</text></g><g class="ytick"><text text-anchor="end" x="45" y="4.199999999999999" style="font-family: 'Open Sans', verdana, arial, sans-serif; font-size: 12px; fill: rgb(242, 245, 250); fill-opacity: 1; white-space: pre; opacity: 1;" transform="translate(0,244.19)">100</text></g><g class="ytick"><text text-anchor="end" x="45" y="4.199999999999999" style="font-family: 'Open Sans', verdana, arial, sans-serif; font-size: 12px; fill: rgb(242, 245, 250); fill-opacity: 1; white-space: pre; opacity: 1;" transform="translate(0,186.13)">105</text></g><g class="ytick"><text text-anchor="end" x="45" y="4.199999999999999" style="font-family: 'Open Sans', verdana, arial, sans-serif; font-size: 12px; fill: rgb(242, 245, 250); fill-opacity: 1; white-space: pre; opacity: 1;" transform="translate(0,128.06)">110</text></g><g class="ytick"><text text-anchor="end" x="45" y="4.199999999999999" style="font-family: 'Open Sans', verdana, arial, sans-serif; font-size: 12px; fill: rgb(242, 245, 250); fill-opacity: 1; white-space: pre; opacity: 1;" transform="translate(0,70)">115</text></g></g><g class="overaxes-above"/></g></g><g class="polarlayer"/><g class="smithlayer"/><g class="ternarylayer"/><g class="geolayer"/><g class="funnelarealayer"/><g class="pielayer"/><g class="iciclelayer"/><g class="treemaplayer"/><g class="sunburstlayer"/><g class="glimages"/><defs id="topdefs-c64aaa"><g class="clips"/></defs><g class="layer-above"><g class="imagelayer"/><g class="shapelayer"/></g><g class="infolayer"><g class="g-gtitle"/><g class="g-xtitle"/><g class="g-ytitle"/></g></svg>